<svg width="65" height="60" viewBox="0 0 65 60" fill="none" xmlns="http://www.w3.org/2000/svg">
<path d="M49.6963 27.4868C49.2552 22.6135 47.785 17.8913 45.3842 13.6367C42.9833 9.38202 39.7073 5.69318 35.7755 2.81727L31.9119 0L28.2915 2.835C24.5195 5.7881 21.4086 9.5093 19.162 13.7555C16.9154 18.0018 15.5837 22.6775 15.2537 27.4773C13.7963 27.2005 12.3164 27.0613 10.8333 27.0615H0V36C0 49.2337 10.6916 60 23.8333 60H41.1667C54.3084 60 65 49.2337 65 36V27.0615H54.1667C52.6666 27.0613 51.1698 27.2037 49.6963 27.4868ZM30.9519 6.27955L32.0048 5.45455L33.2344 6.35114C36.7802 8.94494 39.7133 12.2955 41.824 16.1633C43.9347 20.0312 45.1707 24.3208 45.4439 28.7255C39.7141 31.0115 35.0786 35.4318 32.5 41.0688C29.9162 35.4213 25.2679 30.9958 19.5238 28.7142C19.6751 24.359 20.7776 20.0908 22.7528 16.2132C24.728 12.3357 27.5274 8.94405 30.9519 6.27955ZM30.3333 55.6364H23.8333C13.0813 55.6364 4.33333 46.8273 4.33333 36V31.4251H10.8333C21.5854 31.4251 30.3333 40.2342 30.3333 51.0615V55.6364ZM60.6667 36C60.6667 46.8273 51.9188 55.6364 41.1667 55.6364H34.6667V51.0615C34.6667 40.2342 43.4146 31.4251 54.1667 31.4251H60.6667V36Z" fill="black"/>
</svg>
