<svg width="32" height="32" viewBox="0 0 32 32" fill="none" xmlns="http://www.w3.org/2000/svg">
<path d="M15.8334 26.6667C15.9223 26.6667 16.0111 26.6445 16.1 26.6C16.1889 26.5556 16.2556 26.5111 16.3 26.4667L27.2334 15.5334C27.5 15.2667 27.6947 14.9667 27.8174 14.6334C27.94 14.3 28.0009 13.9667 28 13.6334C28 13.2778 27.9391 12.9387 27.8174 12.616C27.6956 12.2934 27.5009 12.0102 27.2334 11.7667L21.5667 6.10002C21.3223 5.83335 21.0387 5.63913 20.716 5.51735C20.3934 5.39558 20.0551 5.33424 19.7014 5.33335C19.368 5.33335 19.0347 5.39469 18.7014 5.51735C18.368 5.64002 18.068 5.83424 17.8014 6.10002L17.4347 6.46669L19.9014 8.96669C20.2347 9.2778 20.4791 9.63335 20.6347 10.0334C20.7903 10.4334 20.868 10.8556 20.868 11.3C20.868 12.2334 20.5516 13.0169 19.9187 13.6507C19.2858 14.2845 18.5023 14.6009 17.568 14.6C17.1236 14.6 16.696 14.5222 16.2854 14.3667C15.8747 14.2111 15.5134 13.9778 15.2014 13.6667L12.7 11.2L6.8667 17.0334C6.80004 17.1 6.75026 17.1725 6.71737 17.2507C6.68448 17.3289 6.66759 17.412 6.6667 17.5C6.6667 17.6778 6.73337 17.8391 6.8667 17.984C7.00004 18.1289 7.15559 18.2009 7.33337 18.2C7.42226 18.2 7.51115 18.1778 7.60004 18.1334C7.68893 18.0889 7.75559 18.0445 7.80004 18L11.4 14.4C11.6445 14.1556 11.9503 14.0276 12.3174 14.016C12.6845 14.0045 13.0009 14.1325 13.2667 14.4C13.5111 14.6445 13.6334 14.9556 13.6334 15.3334C13.6334 15.7111 13.5111 16.0222 13.2667 16.2667L9.70004 19.8667C9.63337 19.9334 9.58359 20.0058 9.5507 20.084C9.51781 20.1622 9.50093 20.2454 9.50004 20.3334C9.50004 20.5111 9.5667 20.6667 9.70004 20.8C9.83337 20.9334 9.98892 21 10.1667 21C10.2556 21 10.3445 20.9778 10.4334 20.9334C10.5223 20.8889 10.5889 20.8445 10.6334 20.8L14.2334 17.2334C14.4778 16.9889 14.7836 16.8609 15.1507 16.8494C15.5178 16.8378 15.8343 16.9658 16.1 17.2334C16.3445 17.4778 16.4667 17.7889 16.4667 18.1667C16.4667 18.5445 16.3445 18.8556 16.1 19.1L12.5334 22.7C12.4667 22.7445 12.4169 22.8111 12.384 22.9C12.3511 22.9889 12.3343 23.0778 12.3334 23.1667C12.3334 23.3445 12.4 23.5 12.5334 23.6334C12.6667 23.7667 12.8223 23.8334 13 23.8334C13.0889 23.8334 13.1725 23.8165 13.2507 23.7827C13.3289 23.7489 13.4009 23.6991 13.4667 23.6334L17.0667 20.0667C17.3111 19.8222 17.6169 19.6942 17.984 19.6827C18.3511 19.6711 18.6676 19.7991 18.9334 20.0667C19.1778 20.3111 19.3 20.6222 19.3 21C19.3 21.3778 19.1778 21.6889 18.9334 21.9334L15.3334 25.5334C15.2667 25.6 15.2169 25.6725 15.184 25.7507C15.1511 25.8289 15.1343 25.912 15.1334 26C15.1334 26.1778 15.2058 26.3334 15.3507 26.4667C15.4956 26.6 15.6565 26.6667 15.8334 26.6667ZM15.8 29.3334C14.9778 29.3334 14.2503 29.0614 13.6174 28.5174C12.9845 27.9734 12.612 27.2898 12.5 26.4667C11.7445 26.3556 11.1111 26.0445 10.6 25.5334C10.0889 25.0222 9.77781 24.3889 9.6667 23.6334C8.91115 23.5222 8.28359 23.2058 7.78404 22.684C7.28448 22.1622 6.9787 21.5342 6.8667 20.8C6.02226 20.6889 5.33337 20.3222 4.80004 19.7C4.2667 19.0778 4.00004 18.3445 4.00004 17.5C4.00004 17.0556 4.08359 16.628 4.2507 16.2174C4.41781 15.8067 4.65648 15.4454 4.9667 15.1334L10.8 9.30002C11.3111 8.78891 11.9391 8.53335 12.684 8.53335C13.4289 8.53335 14.0565 8.78891 14.5667 9.30002L17.0667 11.8C17.1111 11.8667 17.1778 11.9169 17.2667 11.9507C17.3556 11.9845 17.4445 12.0009 17.5334 12C17.7334 12 17.9 11.9391 18.0334 11.8174C18.1667 11.6956 18.2334 11.5342 18.2334 11.3334C18.2334 11.2445 18.2165 11.1556 18.1827 11.0667C18.1489 10.9778 18.0991 10.9111 18.0334 10.8667L13.2667 6.10002C13.0223 5.83335 12.7391 5.63913 12.4174 5.51735C12.0956 5.39558 11.7565 5.33424 11.4 5.33335C11.0667 5.33335 10.7334 5.39469 10.4 5.51735C10.0667 5.64002 9.7667 5.83424 9.50004 6.10002L4.80004 10.8334C4.48892 11.1445 4.2667 11.5111 4.13337 11.9334C4.00004 12.3556 3.9667 12.7778 4.03337 13.2C4.10004 13.5778 4.02226 13.9111 3.80004 14.2C3.57781 14.4889 3.27781 14.6556 2.90004 14.7C2.52226 14.7445 2.18893 14.6609 1.90004 14.4494C1.61115 14.2378 1.44448 13.9436 1.40004 13.5667C1.2667 12.7222 1.32804 11.8947 1.58404 11.084C1.84004 10.2734 2.2787 9.55646 2.90004 8.93335L7.60004 4.23335C8.13337 3.72224 8.72804 3.33335 9.38404 3.06669C10.04 2.80002 10.712 2.66669 11.4 2.66669C12.088 2.66669 12.7605 2.80002 13.4174 3.06669C14.0743 3.33335 14.6574 3.72224 15.1667 4.23335L15.5334 4.60002L15.9 4.23335C16.4334 3.72224 17.028 3.33335 17.684 3.06669C18.34 2.80002 19.012 2.66669 19.7 2.66669C20.388 2.66669 21.0605 2.80002 21.7174 3.06669C22.3743 3.33335 22.9574 3.72224 23.4667 4.23335L29.1 9.86669C29.6111 10.3778 30 10.9667 30.2667 11.6334C30.5334 12.3 30.6667 12.9778 30.6667 13.6667C30.6667 14.3556 30.5334 15.028 30.2667 15.684C30 16.34 29.6111 16.9231 29.1 17.4334L18.1667 28.3334C17.8556 28.6445 17.4947 28.8889 17.084 29.0667C16.6734 29.2445 16.2454 29.3334 15.8 29.3334Z" fill="white"/>
</svg>
