<svg width="68" height="68" viewBox="0 0 68 68" fill="none" xmlns="http://www.w3.org/2000/svg">
<circle cx="34" cy="34" r="34" fill="#03FF00" fill-opacity="0.1"/>
<circle cx="34" cy="34" r="32" fill="#03FF00" fill-opacity="0.3"/>
<path d="M38.1512 38.3989L38.7357 37.8112L37.3782 36.4308L36.7962 37.0185L38.1512 38.3989ZM40.6958 37.5647L43.1456 38.9126L44.0622 37.2027L41.6137 35.8561L40.6958 37.5647ZM43.616 41.5903L41.7957 43.4234L43.1507 44.8025L44.971 42.9707L43.616 41.5903ZM40.6856 44.0124C38.8268 44.1889 34.0195 44.0319 28.8123 38.7933L27.456 40.1723C33.1375 45.8897 38.546 46.1699 40.865 45.9506L40.6856 44.0124ZM28.8123 38.7933C23.85 33.7985 23.027 29.5991 22.9244 27.7763L21.0041 27.8866C21.1323 30.1803 22.1514 34.8351 27.456 40.1723L28.8123 38.7933ZM30.575 30.7758L30.9429 30.4047L29.5892 29.0257L29.2212 29.3954L30.575 30.7758ZM31.2352 25.6889L29.6199 23.5042L28.0803 24.6718L29.6956 26.8552L31.2352 25.6889ZM24.1833 23.0281L22.1706 25.0519L23.5269 26.4323L25.5383 24.4085L24.1833 23.0281ZM29.8981 30.0856C29.2187 29.3954 29.2187 29.3954 29.2187 29.398H29.2161L29.2123 29.4032C29.1514 29.4653 29.0968 29.5336 29.0495 29.6069C28.9802 29.7107 28.9046 29.8469 28.8405 30.0194C28.6845 30.4648 28.6456 30.9436 28.7277 31.4089C28.8995 32.531 29.6635 34.0139 31.6197 35.9832L32.976 34.6029C31.1441 32.7607 30.7083 31.6398 30.6275 31.1105C30.5891 30.8588 30.6288 30.7342 30.6403 30.7057C30.648 30.6884 30.648 30.6858 30.6403 30.6979C30.6289 30.7158 30.6161 30.7327 30.6019 30.7485L30.5891 30.7615L30.5762 30.7732L29.8981 30.0856ZM31.6197 35.9832C33.5772 37.9526 35.0502 38.7206 36.1603 38.8919C36.7282 38.9801 37.1859 38.91 37.5333 38.779C37.7279 38.707 37.9097 38.6036 38.0717 38.4728L38.1358 38.4144L38.1448 38.4067L38.1486 38.4028L38.1499 38.4002C38.1499 38.4002 38.1512 38.3989 37.473 37.7087C36.7936 37.0185 36.7975 37.0172 36.7975 37.0172L36.8 37.0146L36.8026 37.012L36.8103 37.0055L36.8231 36.9926L36.8718 36.9537C36.8838 36.9459 36.8808 36.9467 36.8628 36.9562C36.8308 36.9679 36.7052 37.0081 36.4526 36.9692C35.9219 36.8862 34.8066 36.4451 32.976 34.6029L31.6197 35.9832ZM29.6199 23.5029C28.3124 21.7386 25.7434 21.4583 24.1833 23.0281L25.5383 24.4085C26.2202 23.7222 27.4304 23.7935 28.0803 24.6718L29.6199 23.5029ZM22.9257 27.7776C22.9 27.3288 23.1039 26.8591 23.5269 26.4336L22.1693 25.0532C21.4809 25.746 20.9387 26.7268 21.0041 27.8866L22.9257 27.7776ZM41.7957 43.4234C41.4445 43.7789 41.065 43.9787 40.6868 44.0137L40.865 45.9506C41.8072 45.8611 42.5777 45.3811 43.152 44.8038L41.7957 43.4234ZM30.9429 30.4047C32.2056 29.1346 32.2992 27.1277 31.2364 25.6902L29.6968 26.8565C30.2135 27.5558 30.1365 28.473 29.5879 29.027L30.9429 30.4047ZM43.1469 38.9139C44.1942 39.4899 44.357 40.8469 43.6173 41.5916L44.9736 42.9707C46.6914 41.2413 46.162 38.3574 44.0634 37.204L43.1469 38.9139ZM38.7357 37.8125C39.228 37.3169 40.0202 37.195 40.6971 37.566L41.615 35.8574C40.2253 35.092 38.5024 35.3034 37.3795 36.4321L38.7357 37.8125Z" fill="white" fill-opacity="0.5"/>
</svg>
