<svg width="68" height="68" viewBox="0 0 68 68" fill="none" xmlns="http://www.w3.org/2000/svg">
<circle cx="34" cy="34" r="34" fill="#03FF00" fill-opacity="0.1"/>
<circle cx="34" cy="34" r="32" fill="#03FF00" fill-opacity="0.3"/>
<path d="M32.7692 34C32.7692 34.3264 32.8989 34.6395 33.1297 34.8703C33.3605 35.1011 33.6736 35.2308 34 35.2308C34.3264 35.2308 34.6395 35.1011 34.8703 34.8703C35.1011 34.6395 35.2308 34.3264 35.2308 34C35.2308 33.6736 35.1011 33.3605 34.8703 33.1297C34.6395 32.8989 34.3264 32.7692 34 32.7692C33.6736 32.7692 33.3605 32.8989 33.1297 33.1297C32.8989 33.3605 32.7692 33.6736 32.7692 34Z" fill="white" fill-opacity="0.5"/>
<path d="M48.757 27.8C47.9498 25.8821 46.7927 24.1607 45.3177 22.6821C43.853 21.2122 42.1143 20.0437 40.1999 19.2429C38.2357 18.4179 36.15 18 34 18H33.9286C31.7643 18.0107 29.6679 18.4393 27.6965 19.2821C25.7985 20.0912 24.0761 21.2617 22.6251 22.7286C21.1644 24.2036 20.018 25.9179 19.2252 27.8286C18.4038 29.8071 17.9895 31.9107 18.0002 34.075C18.0123 36.5553 18.5991 38.999 19.7145 41.2143V46.6429C19.7145 47.0786 19.8876 47.4964 20.1956 47.8045C20.5037 48.1126 20.9216 48.2857 21.3573 48.2857H26.7894C29.0047 49.4011 31.4484 49.9879 33.9286 50H34.0036C36.1428 50 38.2178 49.5857 40.1714 48.775C42.0761 47.9837 43.8083 46.8289 45.2713 45.375C46.7463 43.9143 47.907 42.2071 48.7177 40.3036C49.5605 38.3321 49.9891 36.2357 49.9998 34.0714C50.0105 31.8964 49.5891 29.7857 48.757 27.8ZM43.3606 43.4429C40.8571 45.9214 37.5357 47.2857 34 47.2857H33.9393C31.7857 47.275 29.6465 46.7393 27.7572 45.7321L27.4572 45.5714H22.4287V40.5429L22.268 40.2429C21.2609 38.3536 20.7252 36.2143 20.7145 34.0607C20.7002 30.5 22.0609 27.1571 24.5573 24.6393C27.0501 22.1214 30.3822 20.7286 33.9429 20.7143H34.0036C35.7893 20.7143 37.5214 21.0607 39.1535 21.7464C40.7463 22.4143 42.1749 23.375 43.4035 24.6036C44.6284 25.8286 45.5927 27.2607 46.2606 28.8536C46.9534 30.5036 47.2998 32.2536 47.2927 34.0607C47.2713 37.6179 45.8749 40.95 43.3606 43.4429Z" fill="white" fill-opacity="0.5"/>
<path d="M37.7693 34C37.7693 34.3264 37.899 34.6395 38.1298 34.8703C38.3606 35.1011 38.6736 35.2308 39.0001 35.2308C39.3265 35.2308 39.6395 35.1011 39.8703 34.8703C40.1012 34.6395 40.2308 34.3264 40.2308 34C40.2308 33.6736 40.1012 33.3605 39.8703 33.1297C39.6395 32.8989 39.3265 32.7692 39.0001 32.7692C38.6736 32.7692 38.3606 32.8989 38.1298 33.1297C37.899 33.3605 37.7693 33.6736 37.7693 34Z" fill="white" fill-opacity="0.5"/>
<path d="M27.7693 34C27.7693 34.3264 27.899 34.6395 28.1298 34.8703C28.3606 35.1011 28.6736 35.2308 29.0001 35.2308C29.3265 35.2308 29.6395 35.1011 29.8703 34.8703C30.1012 34.6395 30.2308 34.3264 30.2308 34C30.2308 33.6736 30.1012 33.3605 29.8703 33.1297C29.6395 32.8989 29.3265 32.7692 29.0001 32.7692C28.6736 32.7692 28.3606 32.8989 28.1298 33.1297C27.899 33.3605 27.7693 33.6736 27.7693 34Z" fill="white" fill-opacity="0.5"/>
</svg>
