<svg width="59" height="64" viewBox="0 0 59 64" fill="none" xmlns="http://www.w3.org/2000/svg">
<path d="M26.4395 2.76562C27.3437 2.26349 28.3609 2 29.3952 2C30.4294 2 31.4466 2.26349 32.3508 2.76562L55.2257 15.4709C55.7 15.7346 56.0951 16.1203 56.3702 16.5881C56.6453 17.0558 56.7903 17.5886 56.7903 18.1313V43.1978C56.7906 44.2839 56.5003 45.3504 55.9496 46.2865C55.3988 47.2226 54.6076 47.9943 53.6581 48.5216L32.3508 60.3563C31.4466 60.8585 30.4294 61.122 29.3952 61.122C28.3609 61.122 27.3437 60.8585 26.4395 60.3563L5.13218 48.5186C4.18356 47.9918 3.39299 47.221 2.84229 46.2861C2.2916 45.3511 2.0008 44.286 2 43.2009V18.1313C1.99998 17.5886 2.14502 17.0558 2.4201 16.5881C2.69519 16.1203 3.09032 15.7346 3.56457 15.4709L26.4395 2.76562Z" stroke="#0F100F" stroke-width="4" stroke-linecap="round" stroke-linejoin="round"/>
<path d="M2 16.3413L29.3952 31.5608M29.3952 31.5608L56.7903 16.3413M29.3952 31.5608V61.9999" stroke="#0F100F" stroke-width="4" stroke-linejoin="round"/>
<path d="M15.6977 23.951L43.0928 8.73145M11.1318 32.5591L20.2636 37.6486" stroke="#0F100F" stroke-width="4" stroke-linecap="round" stroke-linejoin="round"/>
</svg>
