<svg width="32" height="27" viewBox="0 0 32 27" fill="none" xmlns="http://www.w3.org/2000/svg">
<path opacity="0.5" d="M20.8079 8.92082C21.3681 9.47523 22.076 9.85243 22.8449 10.0063C23.6137 10.1601 24.4103 10.0839 25.137 9.78701C25.8638 9.4901 26.4892 8.98535 26.9367 8.33454C27.3843 7.68372 27.6346 6.91505 27.657 6.12259C27.6794 5.33014 27.4729 4.54826 27.0629 3.87263C26.6528 3.197 26.057 2.65692 25.3482 2.31849C24.6394 1.98005 23.8485 1.85793 23.0722 1.96707C22.2959 2.07621 21.5678 2.41187 20.9772 2.93299C21.2548 3.4267 21.4622 3.96516 21.5873 4.53447C21.8992 4.09199 22.3434 3.76258 22.8544 3.59485C23.3654 3.42711 23.9162 3.42992 24.4255 3.60286C24.9348 3.77579 25.3757 4.10971 25.6832 4.55535C25.9906 5.001 26.1483 5.53478 26.1331 6.07798C26.1178 6.62118 25.9304 7.14505 25.5984 7.57231C25.2664 7.99958 24.8075 8.30763 24.2893 8.45104C23.7711 8.59444 23.2211 8.56561 22.7203 8.36879C22.2195 8.17197 21.7945 7.81759 21.508 7.3579C21.3538 7.91158 21.1178 8.4385 20.8079 8.92082ZM11.0228 2.93145C10.4322 2.41033 9.70414 2.07466 8.92782 1.96552C8.1515 1.85639 7.36057 1.97851 6.6518 2.31694C5.94303 2.65538 5.34716 3.19546 4.93711 3.87109C4.52706 4.54672 4.3206 5.32859 4.34301 6.12105C4.36542 6.91351 4.61571 7.68217 5.06327 8.33299C5.51083 8.98381 6.13624 9.48855 6.86298 9.78546C7.58972 10.0824 8.38626 10.1586 9.15514 10.0047C9.92402 9.85089 10.6319 9.47369 11.1921 8.91927C10.8829 8.43734 10.6474 7.91095 10.4935 7.3579C10.2045 7.824 9.77329 8.18225 9.26511 8.3785C8.75693 8.57474 8.1994 8.59831 7.6768 8.44563C7.15421 8.29296 6.69495 7.97235 6.36847 7.53227C6.04199 7.09219 5.86603 6.55656 5.86718 6.00636C5.86748 5.4694 6.03634 4.94641 6.34942 4.51278C6.66251 4.07915 7.10363 3.75728 7.60921 3.59356C8.1148 3.42985 8.65872 3.43276 9.16256 3.60186C9.66641 3.77096 10.1042 4.09752 10.4127 4.53447C10.5378 3.96362 10.7452 3.42516 11.0228 2.93145ZM4.86656 10.8725C4.40896 10.996 3.95746 11.1502 3.50749 11.3014L3.12005 11.431C2.47949 11.6427 1.90196 12.0141 1.44076 12.5111C0.97956 13.0081 0.64956 13.6145 0.481219 14.2745L0.026668 17.5654C-0.145695 18.8244 0.522403 20.1482 1.88758 20.4768C2.26485 20.5704 2.71482 20.6604 3.2375 20.7468C3.33646 20.7629 3.43758 20.7592 3.53509 20.7357C3.63261 20.7123 3.72461 20.6697 3.80584 20.6103C3.88707 20.5509 3.95594 20.4759 4.00852 20.3896C4.0611 20.3033 4.09636 20.2074 4.11228 20.1073C4.12821 20.0072 4.12449 19.9049 4.10133 19.8063C4.07818 19.7077 4.03604 19.6146 3.97733 19.5324C3.91862 19.4503 3.84449 19.3806 3.75916 19.3274C3.67383 19.2742 3.57898 19.2386 3.48003 19.2225C3.06375 19.156 2.65009 19.0736 2.23993 18.9756C1.77776 18.8645 1.45286 18.3986 1.53828 17.7768L1.96995 14.6155C2.18502 13.8132 2.79363 12.9955 3.59596 12.7286C4.07491 12.5697 5.26468 12.3429 5.26468 12.3429C5.90532 12.7286 6.13412 12.8844 6.13412 12.8844C6.31526 12.9668 6.52101 12.9744 6.70763 12.9057C6.89425 12.837 7.04701 12.6973 7.13343 12.5165C7.21985 12.3356 7.23312 12.1278 7.17041 11.9372C7.10771 11.7466 6.97397 11.5883 6.79764 11.4958C6.64307 11.4166 6.49257 11.3323 6.34614 11.2428C5.89312 10.9713 5.46144 10.7121 4.86656 10.8725ZM28.4925 11.3014C28.0425 11.1487 27.5926 10.9975 27.1334 10.8725C26.5386 10.7121 26.1069 10.9713 25.6539 11.2428C25.5074 11.3323 25.3569 11.4166 25.2024 11.4958C25.026 11.5883 24.8923 11.7466 24.8296 11.9372C24.7669 12.1278 24.7801 12.3356 24.8666 12.5165C24.953 12.6973 25.1057 12.837 25.2924 12.9057C25.479 12.9744 25.6847 12.9668 25.8659 12.8844C25.8659 12.8844 26.0947 12.7286 26.7353 12.3429C26.7353 12.3429 27.9251 12.5697 28.404 12.7286C29.2064 12.9955 29.8135 13.8132 30.0301 14.6155L30.4617 17.7768C30.5471 18.3986 30.2222 18.8645 29.7601 18.9756C29.4194 19.06 29.006 19.1422 28.52 19.2225C28.3201 19.2552 28.1413 19.3669 28.0229 19.533C27.9643 19.6152 27.9222 19.7083 27.8991 19.807C27.8761 19.9057 27.8725 20.008 27.8885 20.1081C27.9045 20.2082 27.9399 20.3041 27.9925 20.3904C28.0452 20.4766 28.1142 20.5515 28.1955 20.6109C28.3597 20.7306 28.5642 20.7796 28.764 20.7468C29.2847 20.6594 29.7341 20.5694 30.1124 20.4768C31.4776 20.1482 32.1457 18.826 31.9733 17.5654L31.5173 14.2745C31.3502 13.6139 31.0207 13.0068 30.5593 12.5096C30.0979 12.0124 29.5197 11.6414 28.8784 11.431L28.4925 11.3014Z" fill="white"/>
<path d="M16.0001 0C14.483 0 13.0281 0.609565 11.9554 1.6946C10.8827 2.77963 10.2801 4.25125 10.2801 5.78571C10.2801 7.32018 10.8827 8.7918 11.9554 9.87683C13.0281 10.9619 14.483 11.5714 16.0001 11.5714C17.5171 11.5714 18.972 10.9619 20.0447 9.87683C21.1174 8.7918 21.7201 7.32018 21.7201 5.78571C21.7201 4.25125 21.1174 2.77963 20.0447 1.6946C18.972 0.609565 17.5171 0 16.0001 0ZM12.5681 5.78571C12.5681 4.86503 12.9296 3.98206 13.5733 3.33104C14.2169 2.68002 15.0898 2.31429 16.0001 2.31429C16.9103 2.31429 17.7832 2.68002 18.4269 3.33104C19.0705 3.98206 19.4321 4.86503 19.4321 5.78571C19.4321 6.70639 19.0705 7.58937 18.4269 8.24039C17.7832 8.8914 16.9103 9.25714 16.0001 9.25714C15.0898 9.25714 14.2169 8.8914 13.5733 8.24039C12.9296 7.58937 12.5681 6.70639 12.5681 5.78571ZM20.9345 12.5974C20.0041 12.3305 19.124 12.6499 18.5215 13.0557C17.9723 13.4229 17.0846 13.8641 16.0001 13.8641C14.9156 13.8641 14.0263 13.4229 13.4787 13.0557C12.8747 12.6499 11.9945 12.3305 11.0641 12.5974C10.82 12.6669 10.5775 12.7415 10.3365 12.8211L8.87217 13.3071C7.96249 13.6062 7.14232 14.1331 6.48789 14.8387C5.83346 15.5444 5.36602 16.4059 5.12899 17.3433L5.11374 17.405L4.4914 21.9564C4.24582 23.7523 5.19611 25.6485 7.15159 26.119C8.93623 26.5495 11.8069 27 15.9985 27C20.1917 27 23.0624 26.5495 24.847 26.1206C26.8025 25.6485 27.7543 23.7523 27.5072 21.9579L26.8849 17.4065L26.8696 17.3448C26.6327 16.407 26.1651 15.545 25.5104 14.8391C24.8557 14.1331 24.0351 13.6062 23.1249 13.3071L21.6621 12.8211C21.4211 12.7419 21.1786 12.6669 20.9345 12.5959M19.786 14.9811C20.0514 14.8037 20.2405 14.8006 20.3122 14.8222C20.5257 14.8839 20.7378 14.9493 20.9483 15.0182L22.4126 15.5042C23.5108 15.8698 24.3406 16.757 24.6365 17.8539L25.2421 22.2727C25.3565 23.112 24.9218 23.7214 24.3177 23.8665C22.7207 24.2522 20.0285 24.6842 16.0001 24.6842C11.9717 24.6842 9.27791 24.2522 7.68088 23.8665C7.07837 23.7214 6.64365 23.112 6.75653 22.2727L7.36209 17.8539C7.51277 17.3072 7.79483 16.8067 8.18313 16.397C8.57143 15.9873 9.0539 15.6811 9.58755 15.5057L11.0519 15.0197C11.2614 14.9498 11.4729 14.8845 11.6864 14.8238C11.7596 14.8022 11.9457 14.8053 12.2127 14.9827C12.9769 15.4965 14.3054 16.1784 16.0001 16.1784C17.6947 16.1784 19.0202 15.4965 19.786 14.9827" fill="white"/>
</svg>
