<svg width="65" height="61" viewBox="0 0 65 61" fill="none" xmlns="http://www.w3.org/2000/svg">
<path d="M22.5939 51.9984H5.56965C4.6234 51.9984 3.71585 51.646 3.04649 51.0187C2.37713 50.3914 2.00073 49.5405 2 48.653V13.5104C2 12.6224 2.37609 11.7709 3.04553 11.143C3.71497 10.5152 4.62292 10.1625 5.56965 10.1625H14.4938C14.5515 7.97923 15.5167 5.90361 17.1835 4.3786C18.8503 2.8536 21.0866 2 23.4152 2C25.7437 2 27.9801 2.8536 29.6469 4.3786C31.3137 5.90361 32.2789 7.97923 32.3366 10.1625H41.2552C42.202 10.1625 43.1099 10.5152 43.7793 11.143C44.4488 11.7709 44.8249 12.6224 44.8249 13.5104V16.6477" stroke="black" stroke-width="4" stroke-linecap="round" stroke-linejoin="round"/>
<path d="M23.4094 9.95163C23.2322 9.95163 23.0624 9.88563 22.9371 9.76814C22.8118 9.65066 22.7415 9.49132 22.7415 9.32518C22.7415 9.15903 22.8118 8.99969 22.9371 8.88221C23.0624 8.76473 23.2322 8.69873 23.4094 8.69873M23.4094 9.95163C23.4971 9.95163 23.584 9.93542 23.665 9.90394C23.746 9.87246 23.8197 9.82631 23.8817 9.76814C23.9437 9.70997 23.9929 9.64091 24.0265 9.56491C24.0601 9.48891 24.0773 9.40744 24.0773 9.32518C24.0773 9.24291 24.0601 9.16145 24.0265 9.08545C23.9929 9.00944 23.9437 8.94038 23.8817 8.88221C23.8197 8.82404 23.746 8.7779 23.665 8.74642C23.584 8.71493 23.4971 8.69873 23.4094 8.69873" stroke="black" stroke-width="4"/>
<path d="M31.4006 48.5218H60.7626M11.7729 20.0005H33.2538M11.7729 28.9017H27.9021M11.7729 37.808H21.2117M50.8365 23.1327V38.6399L60.7544 48.5218C61.5362 49.3993 62.0314 50.4697 62.1806 51.6046C62.3298 52.7395 62.1265 53.8907 61.5953 54.92C61.0641 55.9492 60.2274 56.8128 59.1858 57.4071C58.1441 58.0014 56.9417 58.3011 55.7229 58.2703H36.4238C35.2055 58.3 34.0039 57.9996 32.9629 57.4051C31.922 56.8106 31.0859 55.9472 30.5549 54.9184C30.0239 53.8895 29.8205 52.7389 29.969 51.6044C30.1175 50.4699 30.6117 49.3996 31.3923 48.5218L41.3184 38.6424V23.1327H50.8365Z" stroke="black" stroke-width="4" stroke-linecap="round" stroke-linejoin="round"/>
</svg>
