<svg width="33" height="33" viewBox="0 0 33 33" fill="none" xmlns="http://www.w3.org/2000/svg">
<mask id="path-1-outside-1_411_321" maskUnits="userSpaceOnUse" x="-0.75" y="-0.75" width="34" height="34" fill="black">
<rect fill="white" x="-0.75" y="-0.75" width="34" height="34"/>
<path d="M8.484 25.328C8.92 25.328 9.28533 25.18 9.58 24.884C9.87333 24.5893 10.02 24.2233 10.02 23.786C10.02 23.3487 9.872 22.9833 9.576 22.69C9.28 22.3967 8.914 22.25 8.478 22.25C8.042 22.25 7.67667 22.398 7.382 22.694C7.08733 22.99 6.94067 23.356 6.942 23.792C6.94333 24.228 7.09133 24.5927 7.386 24.886C7.68067 25.1793 8.04667 25.328 8.484 25.328ZM8.484 17.788C8.92 17.788 9.28533 17.6407 9.58 17.346C9.87333 17.05 10.02 16.6833 10.02 16.246C10.02 15.8087 9.872 15.444 9.576 15.152C9.28 14.86 8.914 14.7133 8.478 14.712C8.042 14.7107 7.67667 14.858 7.382 15.154C7.08733 15.45 6.94067 15.8167 6.942 16.254C6.94333 16.6913 7.09133 17.056 7.386 17.348C7.68067 17.64 8.04667 17.7867 8.484 17.788ZM8.484 10.25C8.92 10.25 9.28533 10.1027 9.58 9.808C9.87333 9.512 10.02 9.14533 10.02 8.708C10.02 8.27067 9.872 7.906 9.576 7.614C9.28 7.322 8.914 7.17533 8.478 7.174C8.042 7.17267 7.67667 7.32 7.382 7.616C7.08867 7.912 6.942 8.278 6.942 8.714C6.942 9.15 7.09 9.51533 7.386 9.81C7.682 10.1047 8.048 10.2513 8.484 10.25ZM15.634 24.79H24.404C24.688 24.79 24.9253 24.6933 25.116 24.5C25.3067 24.3067 25.4027 24.0693 25.404 23.788C25.4053 23.5067 25.3093 23.2693 25.116 23.076C24.9227 22.8827 24.6853 22.7867 24.404 22.788H15.634C15.3513 22.788 15.114 22.884 14.922 23.076C14.73 23.268 14.634 23.506 14.634 23.79C14.634 24.074 14.73 24.3113 14.922 24.502C15.114 24.6927 15.3513 24.788 15.634 24.788M15.634 17.25H24.404C24.688 17.25 24.9253 17.154 25.116 16.962C25.3067 16.77 25.4027 16.532 25.404 16.248C25.4053 15.964 25.3093 15.7267 25.116 15.536C24.9227 15.3453 24.6853 15.25 24.404 15.25H15.634C15.3513 15.25 15.114 15.346 14.922 15.538C14.73 15.73 14.634 15.968 14.634 16.252C14.634 16.536 14.73 16.7733 14.922 16.964C15.114 17.1547 15.3513 17.25 15.634 17.25ZM15.634 9.71H24.404C24.688 9.71 24.9253 9.61467 25.116 9.424C25.308 9.232 25.404 8.994 25.404 8.71C25.404 8.426 25.308 8.18867 25.116 7.998C24.924 7.80733 24.6867 7.712 24.404 7.712H15.634C15.3513 7.712 15.114 7.808 14.922 8C14.73 8.192 14.634 8.43 14.634 8.714C14.634 8.998 14.73 9.23533 14.922 9.426C15.114 9.61667 15.3513 9.712 15.634 9.712M3.482 32.25C2.56067 32.25 1.792 31.942 1.176 31.326C0.56 30.71 0.251333 29.9407 0.25 29.018V3.482C0.25 2.56067 0.558666 1.792 1.176 1.176C1.79333 0.56 2.562 0.251333 3.482 0.25H29.02C29.94 0.25 30.7087 0.558666 31.326 1.176C31.9433 1.79333 32.2513 2.562 32.25 3.482V29.02C32.25 29.94 31.942 30.7087 31.326 31.326C30.71 31.9433 29.9407 32.2513 29.018 32.25H3.482ZM3.482 30.25H29.02C29.3267 30.25 29.6087 30.122 29.866 29.866C30.1233 29.61 30.2513 29.3273 30.25 29.018V3.482C30.25 3.174 30.122 2.89133 29.866 2.634C29.61 2.37667 29.3273 2.24867 29.018 2.25H3.482C3.174 2.25 2.89133 2.378 2.634 2.634C2.37667 2.89 2.24867 3.17267 2.25 3.482V29.02C2.25 29.3267 2.378 29.6087 2.634 29.866C2.89 30.1233 3.172 30.2513 3.48 30.25"/>
</mask>
<path d="M8.484 25.328C8.92 25.328 9.28533 25.18 9.58 24.884C9.87333 24.5893 10.02 24.2233 10.02 23.786C10.02 23.3487 9.872 22.9833 9.576 22.69C9.28 22.3967 8.914 22.25 8.478 22.25C8.042 22.25 7.67667 22.398 7.382 22.694C7.08733 22.99 6.94067 23.356 6.942 23.792C6.94333 24.228 7.09133 24.5927 7.386 24.886C7.68067 25.1793 8.04667 25.328 8.484 25.328ZM8.484 17.788C8.92 17.788 9.28533 17.6407 9.58 17.346C9.87333 17.05 10.02 16.6833 10.02 16.246C10.02 15.8087 9.872 15.444 9.576 15.152C9.28 14.86 8.914 14.7133 8.478 14.712C8.042 14.7107 7.67667 14.858 7.382 15.154C7.08733 15.45 6.94067 15.8167 6.942 16.254C6.94333 16.6913 7.09133 17.056 7.386 17.348C7.68067 17.64 8.04667 17.7867 8.484 17.788ZM8.484 10.25C8.92 10.25 9.28533 10.1027 9.58 9.808C9.87333 9.512 10.02 9.14533 10.02 8.708C10.02 8.27067 9.872 7.906 9.576 7.614C9.28 7.322 8.914 7.17533 8.478 7.174C8.042 7.17267 7.67667 7.32 7.382 7.616C7.08867 7.912 6.942 8.278 6.942 8.714C6.942 9.15 7.09 9.51533 7.386 9.81C7.682 10.1047 8.048 10.2513 8.484 10.25ZM15.634 24.79H24.404C24.688 24.79 24.9253 24.6933 25.116 24.5C25.3067 24.3067 25.4027 24.0693 25.404 23.788C25.4053 23.5067 25.3093 23.2693 25.116 23.076C24.9227 22.8827 24.6853 22.7867 24.404 22.788H15.634C15.3513 22.788 15.114 22.884 14.922 23.076C14.73 23.268 14.634 23.506 14.634 23.79C14.634 24.074 14.73 24.3113 14.922 24.502C15.114 24.6927 15.3513 24.788 15.634 24.788M15.634 17.25H24.404C24.688 17.25 24.9253 17.154 25.116 16.962C25.3067 16.77 25.4027 16.532 25.404 16.248C25.4053 15.964 25.3093 15.7267 25.116 15.536C24.9227 15.3453 24.6853 15.25 24.404 15.25H15.634C15.3513 15.25 15.114 15.346 14.922 15.538C14.73 15.73 14.634 15.968 14.634 16.252C14.634 16.536 14.73 16.7733 14.922 16.964C15.114 17.1547 15.3513 17.25 15.634 17.25ZM15.634 9.71H24.404C24.688 9.71 24.9253 9.61467 25.116 9.424C25.308 9.232 25.404 8.994 25.404 8.71C25.404 8.426 25.308 8.18867 25.116 7.998C24.924 7.80733 24.6867 7.712 24.404 7.712H15.634C15.3513 7.712 15.114 7.808 14.922 8C14.73 8.192 14.634 8.43 14.634 8.714C14.634 8.998 14.73 9.23533 14.922 9.426C15.114 9.61667 15.3513 9.712 15.634 9.712M3.482 32.25C2.56067 32.25 1.792 31.942 1.176 31.326C0.56 30.71 0.251333 29.9407 0.25 29.018V3.482C0.25 2.56067 0.558666 1.792 1.176 1.176C1.79333 0.56 2.562 0.251333 3.482 0.25H29.02C29.94 0.25 30.7087 0.558666 31.326 1.176C31.9433 1.79333 32.2513 2.562 32.25 3.482V29.02C32.25 29.94 31.942 30.7087 31.326 31.326C30.71 31.9433 29.9407 32.2513 29.018 32.25H3.482ZM3.482 30.25H29.02C29.3267 30.25 29.6087 30.122 29.866 29.866C30.1233 29.61 30.2513 29.3273 30.25 29.018V3.482C30.25 3.174 30.122 2.89133 29.866 2.634C29.61 2.37667 29.3273 2.24867 29.018 2.25H3.482C3.174 2.25 2.89133 2.378 2.634 2.634C2.37667 2.89 2.24867 3.17267 2.25 3.482V29.02C2.25 29.3267 2.378 29.6087 2.634 29.866C2.89 30.1233 3.172 30.2513 3.48 30.25" fill="black"/>
<path d="M2.25 2.25H2.125V30.25H2.25H2.375V2.25H2.25ZM9.58 24.884L9.75717 25.0604L9.75718 25.0604L9.58 24.884ZM8.484 17.788L8.48324 18.038H8.484V17.788ZM9.58 17.346L9.75678 17.5228L9.75757 17.522L9.58 17.346ZM8.484 10.25V10L8.48323 10L8.484 10.25ZM9.58 9.808L9.75678 9.98478L9.75757 9.98397L9.58 9.808ZM7.382 7.616L7.20482 7.43962L7.20442 7.44002L7.382 7.616ZM24.404 22.788V23.038L24.4052 23.038L24.404 22.788ZM24.404 7.712V7.962V7.712ZM0.25 29.018H-2.68221e-07L2.68221e-07 29.0184L0.25 29.018ZM3.482 0.25V-2.68221e-07L3.48164 2.68221e-07L3.482 0.25ZM32.25 3.482L32 3.48164V3.482H32.25ZM29.018 32.25L29.0184 32H29.018V32.25ZM30.25 29.018H30L30 29.0191L30.25 29.018ZM29.018 2.25V2.5L29.0191 2.5L29.018 2.25ZM2.25 3.482H2.5L2.5 3.48092L2.25 3.482ZM8.484 25.328V25.578C8.98324 25.578 9.41334 25.4058 9.75717 25.0604L9.58 24.884L9.40282 24.7076C9.15732 24.9542 8.85675 25.078 8.484 25.078V25.328ZM9.58 24.884L9.75718 25.0604C10.0998 24.7162 10.27 24.2856 10.27 23.786H10.02H9.77C9.77 24.161 9.6469 24.4624 9.40282 24.7076L9.58 24.884ZM10.02 23.786H10.27C10.27 23.2856 10.0979 22.8552 9.75197 22.5124L9.576 22.69L9.40002 22.8676C9.6461 23.1114 9.77 23.4117 9.77 23.786H10.02ZM9.576 22.69L9.75197 22.5124C9.4068 22.1704 8.97652 22 8.478 22V22.25V22.5C8.85148 22.5 9.1532 22.623 9.40002 22.8676L9.576 22.69ZM8.478 22.25V22C7.97876 22 7.54866 22.1722 7.20482 22.5176L7.382 22.694L7.55917 22.8704C7.80468 22.6238 8.10524 22.5 8.478 22.5V22.25ZM7.382 22.694L7.20482 22.5176C6.86109 22.8629 6.69047 23.2936 6.692 23.7928L6.942 23.792L7.192 23.7912C7.19086 23.4184 7.31358 23.1171 7.55917 22.8704L7.382 22.694ZM6.942 23.792L6.692 23.7928C6.69353 24.2914 6.86553 24.7206 7.20962 25.0632L7.386 24.886L7.56237 24.7088C7.31713 24.4647 7.19314 24.1646 7.192 23.7912L6.942 23.792ZM7.386 24.886L7.20962 25.0632C7.55319 25.4052 7.9835 25.578 8.484 25.578V25.328V25.078C8.10983 25.078 7.80814 24.9535 7.56237 24.7088L7.386 24.886ZM8.484 17.788V18.038C8.98289 18.038 9.41286 17.8667 9.75678 17.5228L9.58 17.346L9.40322 17.1692C9.1578 17.4146 8.85711 17.538 8.484 17.538V17.788ZM9.58 17.346L9.75757 17.522C10.0998 17.1766 10.27 16.7456 10.27 16.246H10.02H9.77C9.77 16.621 9.64687 16.9234 9.40242 17.17L9.58 17.346ZM10.02 16.246H10.27C10.27 15.7456 10.0979 15.3156 9.75157 14.974L9.576 15.152L9.40043 15.33C9.64613 15.5723 9.77 15.8717 9.77 16.246H10.02ZM9.576 15.152L9.75157 14.974C9.40652 14.6336 8.97668 14.4635 8.47876 14.462L8.478 14.712L8.47723 14.962C8.85132 14.9631 9.15348 15.0864 9.40043 15.33L9.576 15.152ZM8.478 14.712L8.47876 14.462C7.97927 14.4605 7.54885 14.632 7.20482 14.9776L7.382 15.154L7.55917 15.3304C7.80448 15.084 8.10473 14.9609 8.47723 14.962L8.478 14.712ZM7.382 15.154L7.20482 14.9776C6.86093 15.3231 6.69048 15.7545 6.692 16.2548L6.942 16.254L7.192 16.2532C7.19086 15.8788 7.31374 15.5769 7.55917 15.3304L7.382 15.154ZM6.942 16.254L6.692 16.2548C6.69352 16.7545 6.8654 17.1841 7.21003 17.5256L7.386 17.348L7.56197 17.1704C7.31726 16.9279 7.19314 16.6281 7.192 16.2532L6.942 16.254ZM7.386 17.348L7.21003 17.5256C7.55405 17.8665 7.9842 18.0365 8.48324 18.038L8.484 17.788L8.48476 17.538C8.10913 17.5369 7.80728 17.4135 7.56197 17.1704L7.386 17.348ZM8.484 10.25V10.5C8.98289 10.5 9.41286 10.3287 9.75678 9.98478L9.58 9.808L9.40322 9.63122C9.1578 9.87664 8.85711 10 8.484 10V10.25ZM9.58 9.808L9.75757 9.98397C10.0998 9.63865 10.27 9.20762 10.27 8.708H10.02H9.77C9.77 9.08304 9.64687 9.38535 9.40242 9.63202L9.58 9.808ZM10.02 8.708H10.27C10.27 8.20764 10.0979 7.77765 9.75157 7.43602L9.576 7.614L9.40043 7.79197C9.64613 8.03435 9.77 8.3337 9.77 8.708H10.02ZM9.576 7.614L9.75157 7.43602C9.40652 7.09564 8.97668 6.92552 8.47876 6.924L8.478 7.174L8.47723 7.424C8.85132 7.42514 9.15348 7.54836 9.40043 7.79197L9.576 7.614ZM8.478 7.174L8.47876 6.924C7.97927 6.92247 7.54885 7.09404 7.20482 7.43962L7.382 7.616L7.55917 7.79238C7.80448 7.54596 8.10473 7.42286 8.47723 7.424L8.478 7.174ZM7.382 7.616L7.20442 7.44002C6.86236 7.7852 6.692 8.21548 6.692 8.714H6.942H7.192C7.192 8.34052 7.31497 8.0388 7.55957 7.79197L7.382 7.616ZM6.942 8.714H6.692C6.692 9.21324 6.86423 9.64334 7.20962 9.98717L7.386 9.81L7.56238 9.63282C7.31576 9.38732 7.192 9.08676 7.192 8.714H6.942ZM7.386 9.81L7.20962 9.98717C7.55491 10.3309 7.98564 10.5015 8.48476 10.5L8.484 10.25L8.48323 10C8.11036 10.0011 7.80908 9.87842 7.56238 9.63282L7.386 9.81ZM15.634 24.79V25.04H24.404V24.79V24.54H15.634V24.79ZM24.404 24.79V25.04C24.7515 25.04 25.054 24.9189 25.294 24.6755L25.116 24.5L24.938 24.3245C24.7967 24.4678 24.6245 24.54 24.404 24.54V24.79ZM25.116 24.5L25.294 24.6755C25.5323 24.4339 25.6524 24.1332 25.654 23.7892L25.404 23.788L25.154 23.7868C25.153 24.0055 25.081 24.1794 24.938 24.3245L25.116 24.5ZM25.404 23.788L25.654 23.7892C25.6556 23.4433 25.5348 23.1412 25.2928 22.8992L25.116 23.076L24.9392 23.2528C25.0839 23.3974 25.155 23.57 25.154 23.7868L25.404 23.788ZM25.116 23.076L25.2928 22.8992C25.0508 22.6572 24.7487 22.5364 24.4028 22.538L24.404 22.788L24.4052 23.038C24.622 23.037 24.7946 23.1081 24.9392 23.2528L25.116 23.076ZM24.404 22.788V22.538H15.634V22.788V23.038H24.404V22.788ZM15.634 22.788V22.538C15.2881 22.538 14.9862 22.6582 14.7452 22.8992L14.922 23.076L15.0988 23.2528C15.2418 23.1098 15.4146 23.038 15.634 23.038V22.788ZM14.922 23.076L14.7452 22.8992C14.504 23.1405 14.384 23.4431 14.384 23.79H14.634H14.884C14.884 23.5689 14.956 23.3955 15.0988 23.2528L14.922 23.076ZM14.634 23.79H14.384C14.384 24.1369 14.504 24.4393 14.7458 24.6794L14.922 24.502L15.0982 24.3246C14.956 24.1834 14.884 24.0111 14.884 23.79H14.634ZM14.922 24.502L14.7458 24.6794C14.9869 24.9188 15.2886 25.038 15.634 25.038V24.788V24.538C15.4141 24.538 15.241 24.4665 15.0982 24.3246L14.922 24.502ZM15.634 17.25V17.5H24.404V17.25V17H15.634V17.25ZM24.404 17.25V17.5C24.7509 17.5 25.0533 17.38 25.2934 17.1382L25.116 16.962L24.9386 16.7858C24.7974 16.928 24.6251 17 24.404 17V17.25ZM25.116 16.962L25.2934 17.1382C25.5328 16.8971 25.6524 16.5952 25.654 16.2492L25.404 16.248L25.154 16.2468C25.153 16.4688 25.0806 16.6429 24.9386 16.7858L25.116 16.962ZM25.404 16.248L25.654 16.2492C25.6556 15.9013 25.5352 15.5983 25.2915 15.358L25.116 15.536L24.9405 15.714C25.0835 15.855 25.155 16.0267 25.154 16.2468L25.404 16.248ZM25.116 15.536L25.2915 15.358C25.0496 15.1194 24.7484 15 24.404 15V15.25V15.5C24.6223 15.5 24.7957 15.5713 24.9405 15.714L25.116 15.536ZM24.404 15.25V15H15.634V15.25V15.5H24.404V15.25ZM15.634 15.25V15C15.2881 15 14.9862 15.1202 14.7452 15.3612L14.922 15.538L15.0988 15.7148C15.2418 15.5718 15.4146 15.5 15.634 15.5V15.25ZM14.922 15.538L14.7452 15.3612C14.504 15.6025 14.384 15.9051 14.384 16.252H14.634H14.884C14.884 16.0309 14.956 15.8575 15.0988 15.7148L14.922 15.538ZM14.634 16.252H14.384C14.384 16.5989 14.504 16.9013 14.7458 17.1414L14.922 16.964L15.0982 16.7866C14.956 16.6454 14.884 16.4731 14.884 16.252H14.634ZM14.922 16.964L14.7458 17.1414C14.9869 17.3808 15.2886 17.5 15.634 17.5V17.25V17C15.4141 17 15.241 16.9285 15.0982 16.7866L14.922 16.964ZM15.634 9.71V9.96H24.404V9.71V9.46H15.634V9.71ZM24.404 9.71V9.96C24.7504 9.96 25.0525 9.84103 25.2928 9.60078L25.116 9.424L24.9392 9.24722C24.7981 9.3883 24.6256 9.46 24.404 9.46V9.71ZM25.116 9.424L25.2928 9.60078C25.534 9.35954 25.654 9.05691 25.654 8.71H25.404H25.154C25.154 8.93109 25.082 9.10445 24.9392 9.24722L25.116 9.424ZM25.404 8.71H25.654C25.654 8.36307 25.534 8.06074 25.2922 7.82061L25.116 7.998L24.9398 8.17539C25.082 8.31659 25.154 8.48892 25.154 8.71H25.404ZM25.116 7.998L25.2922 7.82061C25.051 7.58117 24.7494 7.462 24.404 7.462V7.712V7.962C24.6239 7.962 24.7969 8.03349 24.9398 8.17539L25.116 7.998ZM24.404 7.712V7.462H15.634V7.712V7.962H24.404V7.712ZM15.634 7.712V7.462C15.2881 7.462 14.9862 7.58224 14.7452 7.82322L14.922 8L15.0988 8.17678C15.2418 8.03376 15.4146 7.962 15.634 7.962V7.712ZM14.922 8L14.7452 7.82322C14.504 8.06445 14.384 8.36709 14.384 8.714H14.634H14.884C14.884 8.49291 14.956 8.31955 15.0988 8.17678L14.922 8ZM14.634 8.714H14.384C14.384 9.06093 14.504 9.36326 14.7458 9.60339L14.922 9.426L15.0982 9.24861C14.956 9.1074 14.884 8.93507 14.884 8.714H14.634ZM14.922 9.426L14.7458 9.60339C14.9869 9.84283 15.2886 9.962 15.634 9.962V9.712V9.462C15.4141 9.462 15.241 9.39051 15.0982 9.24861L14.922 9.426ZM3.482 32.25V32C2.62273 32 1.91898 31.7154 1.35278 31.1492L1.176 31.326L0.999223 31.5028C1.66502 32.1686 2.4986 32.5 3.482 32.5V32.25ZM1.176 31.326L1.35278 31.1492C0.786556 30.583 0.501244 29.8785 0.5 29.0176L0.25 29.018L2.68221e-07 29.0184C0.00142296 30.0029 0.333444 30.837 0.999223 31.5028L1.176 31.326ZM0.25 29.018H0.5V3.482H0.25H0V29.018H0.25ZM0.25 3.482H0.5C0.5 2.6229 0.785122 1.9192 1.35258 1.35297L1.176 1.176L0.999414 0.999032C0.33221 1.66479 0 2.49844 0 3.482H0.25ZM1.176 1.176L1.35258 1.35297C1.92036 0.786418 2.62442 0.501243 3.48236 0.5L3.482 0.25L3.48164 2.68221e-07C2.49958 0.00142352 1.66631 0.333581 0.999414 0.999032L1.176 1.176ZM3.482 0.25V0.5H29.02V0.25V0H3.482V0.25ZM29.02 0.25V0.5C29.8777 0.5 30.5815 0.785058 31.1492 1.35278L31.326 1.176L31.5028 0.999223C30.8358 0.332274 30.0023 0 29.02 0V0.25ZM31.326 1.176L31.1492 1.35278C31.7168 1.9204 32.0012 2.62409 32 3.48164L32.25 3.482L32.5 3.48236C32.5014 2.49991 32.1698 1.66627 31.5028 0.999223L31.326 1.176ZM32.25 3.482H32V29.02H32.25H32.5V3.482H32.25ZM32.25 29.02H32C32 29.8778 31.7155 30.5817 31.149 31.1494L31.326 31.326L31.503 31.5026C32.1685 30.8356 32.5 30.0022 32.5 29.02H32.25ZM31.326 31.326L31.149 31.1494C30.583 31.7167 29.8788 32.0012 29.0184 32L29.018 32.25L29.0176 32.5C30.0025 32.5014 30.837 32.17 31.503 31.5026L31.326 31.326ZM29.018 32.25V32H3.482V32.25V32.5H29.018V32.25ZM3.482 30.25V30.5H29.02V30.25V30H3.482V30.25ZM29.02 30.25V30.5C29.4047 30.5 29.7474 30.3366 30.0423 30.0432L29.866 29.866L29.6897 29.6888C29.47 29.9074 29.2486 30 29.02 30V30.25ZM29.866 29.866L30.0423 30.0432C30.3382 29.7489 30.5017 29.4047 30.5 29.0169L30.25 29.018L30 29.0191C30.001 29.2499 29.9085 29.4711 29.6897 29.6888L29.866 29.866ZM30.25 29.018H30.5V3.482H30.25H30V29.018H30.25ZM30.25 3.482H30.5C30.5 3.09623 30.3369 2.75287 30.0432 2.45768L29.866 2.634L29.6888 2.81032C29.9071 3.0298 30 3.25177 30 3.482H30.25ZM29.866 2.634L30.0432 2.45768C29.7489 2.1618 29.4047 1.99833 29.0169 2L29.018 2.25L29.0191 2.5C29.2499 2.499 29.4711 2.59153 29.6888 2.81032L29.866 2.634ZM29.018 2.25V2H3.482V2.25V2.5H29.018V2.25ZM3.482 2.25V2C3.09623 2 2.75287 2.16311 2.45768 2.45676L2.634 2.634L2.81032 2.81123C3.0298 2.59289 3.25177 2.5 3.482 2.5V2.25ZM2.634 2.634L2.45768 2.45676C2.1618 2.75111 1.99833 3.09527 2 3.48308L2.25 3.482L2.5 3.48092C2.499 3.25006 2.59153 3.02889 2.81032 2.81123L2.634 2.634ZM2.25 3.482H2V29.02H2.25H2.5V3.482H2.25ZM2.25 29.02H2C2 29.4047 2.16335 29.7474 2.45676 30.0423L2.634 29.866L2.81123 29.6897C2.59265 29.47 2.5 29.2486 2.5 29.02H2.25ZM2.634 29.866L2.45676 30.0423C2.75086 30.3379 3.09431 30.5017 3.48108 30.5L3.48 30.25L3.47892 30C3.24969 30.001 3.02913 29.9087 2.81123 29.6897L2.634 29.866Z" fill="black" mask="url(#path-1-outside-1_411_321)"/>
</svg>
