<svg width="27" height="27" viewBox="0 0 27 27" fill="none" xmlns="http://www.w3.org/2000/svg">
<g clip-path="url(#clip0_411_251)">
<path d="M24.4688 13.5C24.4688 10.5909 23.3131 7.80096 21.2561 5.74392C19.199 3.68688 16.4091 2.53125 13.5 2.53125C10.5909 2.53125 7.80096 3.68688 5.74392 5.74392C3.68688 7.80096 2.53125 10.5909 2.53125 13.5C2.53125 16.4091 3.68688 19.199 5.74392 21.2561C7.80096 23.3131 10.5909 24.4688 13.5 24.4688C16.4091 24.4688 19.199 23.3131 21.2561 21.2561C23.3131 19.199 24.4688 16.4091 24.4688 13.5ZM0 13.5C0 9.91958 1.42232 6.4858 3.95406 3.95406C6.4858 1.42232 9.91958 0 13.5 0C17.0804 0 20.5142 1.42232 23.0459 3.95406C25.5777 6.4858 27 9.91958 27 13.5C27 17.0804 25.5777 20.5142 23.0459 23.0459C20.5142 25.5777 17.0804 27 13.5 27C9.91958 27 6.4858 25.5777 3.95406 23.0459C1.42232 20.5142 0 17.0804 0 13.5ZM9.3498 16.8434C10.1408 17.666 11.5172 18.5625 13.5 18.5625C15.4828 18.5625 16.8592 17.666 17.6502 16.8434C18.1354 16.3371 18.9369 16.3213 19.4379 16.8064C19.9389 17.2916 19.96 18.0932 19.4748 18.5941C18.3094 19.807 16.3107 21.0938 13.5 21.0938C10.6893 21.0938 8.69063 19.807 7.5252 18.5941C7.04004 18.0879 7.05586 17.2863 7.56211 16.8064C8.06836 16.3266 8.86992 16.3371 9.3498 16.8434ZM7.59375 10.9688C7.59375 10.5212 7.77154 10.092 8.08801 9.77551C8.40448 9.45904 8.8337 9.28125 9.28125 9.28125C9.7288 9.28125 10.158 9.45904 10.4745 9.77551C10.791 10.092 10.9688 10.5212 10.9688 10.9688C10.9688 11.4163 10.791 11.8455 10.4745 12.162C10.158 12.4785 9.7288 12.6562 9.28125 12.6562C8.8337 12.6562 8.40448 12.4785 8.08801 12.162C7.77154 11.8455 7.59375 11.4163 7.59375 10.9688ZM17.7188 9.28125C18.1663 9.28125 18.5955 9.45904 18.912 9.77551C19.2285 10.092 19.4062 10.5212 19.4062 10.9688C19.4062 11.4163 19.2285 11.8455 18.912 12.162C18.5955 12.4785 18.1663 12.6562 17.7188 12.6562C17.2712 12.6562 16.842 12.4785 16.5255 12.162C16.209 11.8455 16.0312 11.4163 16.0312 10.9688C16.0312 10.5212 16.209 10.092 16.5255 9.77551C16.842 9.45904 17.2712 9.28125 17.7188 9.28125Z" fill="white"/>
</g>
<defs>
<clipPath id="clip0_411_251">
<rect width="27" height="27" fill="white"/>
</clipPath>
</defs>
</svg>
