<svg width="32" height="32" viewBox="0 0 32 32" fill="none" xmlns="http://www.w3.org/2000/svg">
<rect x="0.5" y="0.5" width="31" height="31" stroke="black"/>
<path fill-rule="evenodd" clip-rule="evenodd" d="M17.7334 3.30736L19.6894 4.97073C20.1156 5.33316 20.645 5.55245 21.2027 5.59761L23.7619 5.80442C25.0656 5.9098 26.1006 6.9448 26.206 8.24855L26.4129 10.8077C26.458 11.3654 26.6773 11.8948 27.0397 12.321L28.703 14.2769C29.5504 15.2733 29.5504 16.737 28.703 17.7334L27.0397 19.6894C26.6772 20.1156 26.458 20.645 26.4128 21.2027L26.2059 23.7619C26.1006 25.0656 25.0655 26.1006 23.7619 26.206L21.2027 26.4129C20.645 26.458 20.1156 26.6773 19.6894 27.0397L17.7334 28.703C16.737 29.5504 15.2733 29.5504 14.2769 28.703L12.321 27.0397C11.8948 26.6772 11.3654 26.458 10.8077 26.4128L8.24855 26.2059C6.9448 26.1006 5.9098 25.0655 5.80442 23.7619L5.59755 21.2027C5.55239 20.645 5.3331 20.1156 4.97067 19.6894L3.30736 17.7334C2.46005 16.737 2.46005 15.2733 3.30736 14.2769L4.97073 12.321C5.33316 11.8948 5.55245 11.3654 5.59761 10.8077L5.80442 8.24855C5.9098 6.9448 6.9448 5.9098 8.24855 5.80442L10.8077 5.59755C11.3654 5.55239 11.8948 5.3331 12.321 4.97067L14.2769 3.30736C15.2733 2.46005 16.737 2.46005 17.7334 3.30736ZM16.0059 5.3388L14.0486 7.00211C13.1963 7.72692 12.1377 8.16541 11.0225 8.25555L8.46336 8.46242L8.25555 11.0225C8.16541 12.1377 7.72692 13.1963 7.00211 14.0486L5.3388 16.0045L7.00211 17.9618C7.72691 18.8141 8.1654 19.8726 8.25555 20.9878L8.46242 23.547L11.0225 23.7549C12.1377 23.845 13.1963 24.2834 14.0486 25.0082L16.0045 26.6716L17.9618 25.0082C18.8141 24.2835 19.8727 23.845 20.9878 23.7549L23.547 23.548L23.7549 20.9878C23.845 19.8727 24.2835 18.8141 25.0082 17.9618L26.6716 16.0059L25.0082 14.0486C24.2834 13.1963 23.845 12.1377 23.7549 11.0225L23.548 8.46336L20.9878 8.25555C19.8726 8.1654 18.8141 7.72691 17.9618 7.00211L16.0059 5.3388ZM21.0209 11.2363L22.9064 13.1217L14.6666 21.396L9.72392 16.4532L11.6094 14.5679L14.6666 17.6251L21.0209 11.2363Z" fill="white"/>
</svg>
