<svg width="32" height="32" viewBox="0 0 32 32" fill="none" xmlns="http://www.w3.org/2000/svg">
<path d="M11.2 7.99999H22.4C22.8533 7.99999 23.2336 8.15359 23.5408 8.46079C23.848 8.76799 24.0011 9.14773 24 9.59999C23.9989 10.0523 23.8453 10.4325 23.5392 10.7408C23.2331 11.0491 22.8533 11.2021 22.4 11.2H11.2C10.7467 11.2 10.3669 11.0464 10.0608 10.7392C9.75466 10.432 9.60106 10.0523 9.59999 9.59999C9.59893 9.14773 9.75253 8.76799 10.0608 8.46079C10.3691 8.15359 10.7488 7.99999 11.2 7.99999ZM11.2 12.8H22.4C22.8533 12.8 23.2336 12.9536 23.5408 13.2608C23.848 13.568 24.0011 13.9477 24 14.4C23.9989 14.8523 23.8453 15.2325 23.5392 15.5408C23.2331 15.8491 22.8533 16.0021 22.4 16H11.2C10.7467 16 10.3669 15.8464 10.0608 15.5392C9.75466 15.232 9.60106 14.8523 9.59999 14.4C9.59893 13.9477 9.75253 13.568 10.0608 13.2608C10.3691 12.9536 10.7488 12.8 11.2 12.8ZM4.8 32C3.46667 32 2.33333 31.5333 1.4 30.6C0.466666 29.6666 0 28.5333 0 27.2V24C0 23.5467 0.1536 23.1669 0.4608 22.8608C0.768 22.5547 1.14773 22.4011 1.6 22.4H4.8V3.2C4.8 2.32 5.1136 1.56693 5.7408 0.940799C6.368 0.314667 7.12106 0.00106667 8 0H25.6C26.48 0 27.2336 0.3136 27.8608 0.940799C28.488 1.568 28.8011 2.32107 28.8 3.2V12.8C28.8 13.2533 28.6464 13.6336 28.3392 13.9408C28.032 14.248 27.6523 14.4011 27.2 14.4C26.7477 14.3989 26.368 14.2453 26.0608 13.9392C25.7536 13.6331 25.6 13.2533 25.6 12.8V3.2H8V22.4H12.8C13.2533 22.4 13.6336 22.5536 13.9408 22.8608C14.248 23.168 14.4011 23.5477 14.4 24C14.3989 24.4523 14.2453 24.8325 13.9392 25.1408C13.6331 25.449 13.2533 25.6021 12.8 25.6H3.2V27.2C3.2 27.6533 3.3536 28.0336 3.6608 28.3408C3.968 28.648 4.34773 28.801 4.8 28.8H12.8C13.2533 28.8 13.6336 28.9536 13.9408 29.2608C14.248 29.568 14.4011 29.9477 14.4 30.4C14.3989 30.8522 14.2453 31.2325 13.9392 31.5408C13.6331 31.849 13.2533 32.0021 12.8 32H4.8ZM17.6 30.4V27.76C17.6 27.5466 17.64 27.3402 17.72 27.1408C17.8 26.9413 17.92 26.761 18.08 26.6L26.44 18.28C26.68 18.04 26.9467 17.8667 27.24 17.76C27.5333 17.6533 27.8267 17.6 28.12 17.6C28.44 17.6 28.7467 17.6603 29.04 17.7808C29.3333 17.9013 29.6 18.0811 29.84 18.32L31.32 19.8C31.5333 20.04 31.7003 20.3067 31.8208 20.6C31.9413 20.8933 32.001 21.1867 32 21.48C31.9989 21.7733 31.9456 22.0736 31.84 22.3808C31.7344 22.688 31.5611 22.9611 31.32 23.2L23 31.52C22.84 31.68 22.6603 31.8 22.4608 31.88C22.2613 31.96 22.0544 32 21.84 32H19.2C18.7467 32 18.3669 31.8469 18.0608 31.5408C17.7547 31.2346 17.6011 30.8544 17.6 30.4ZM20 29.6H21.52L26.36 24.72L25.64 23.96L24.88 23.24L20 28.08V29.6ZM25.64 23.96L24.88 23.24L26.36 24.72L25.64 23.96Z" fill="black"/>
</svg>
