<svg width="32" height="34" viewBox="0 0 32 34" fill="none" xmlns="http://www.w3.org/2000/svg">
<path fill-rule="evenodd" clip-rule="evenodd" d="M8.69136 33.4999C10.9964 33.4999 13.2071 32.5842 14.8371 30.9543C16.467 29.3243 17.3827 27.1136 17.3827 24.8085C17.3827 22.5035 16.467 20.2928 14.8371 18.6628C13.2071 17.0329 10.9964 16.1172 8.69136 16.1172C6.38627 16.1172 4.17559 17.0329 2.54564 18.6628C0.915694 20.2928 0 22.5035 0 24.8085C0 27.1136 0.915694 29.3243 2.54564 30.9543C4.17559 32.5842 6.38627 33.4999 8.69136 33.4999ZM8.69136 19.2887C8.90091 19.2887 9.10188 19.372 9.25006 19.5202C9.39824 19.6683 9.48148 19.8693 9.48148 20.0789V24.0184H13.421C13.6306 24.0184 13.8316 24.1017 13.9797 24.2498C14.1279 24.398 14.2112 24.599 14.2112 24.8085C14.2112 25.0181 14.1279 25.2191 13.9797 25.3672C13.8316 25.5154 13.6306 25.5987 13.421 25.5987H9.48148V29.5382C9.48148 29.7478 9.39824 29.9487 9.25006 30.0969C9.10188 30.2451 8.90091 30.3283 8.69136 30.3283C8.4818 30.3283 8.28083 30.2451 8.13266 30.0969C7.98448 29.9487 7.90123 29.7478 7.90123 29.5382V25.5987H3.96168C3.75212 25.5987 3.55115 25.5154 3.40298 25.3672C3.2548 25.2191 3.17156 25.0181 3.17156 24.8085C3.17156 24.599 3.2548 24.398 3.40298 24.2498C3.55115 24.1017 3.75212 24.0184 3.96168 24.0184H7.90123V20.0789C7.90123 19.8693 7.98448 19.6683 8.13266 19.5202C8.28083 19.372 8.4818 19.2887 8.69136 19.2887Z" fill="black"/>
<path d="M5.20215 13.3519V7.03086C5.20215 5.56399 5.78486 4.15719 6.8221 3.11995C7.85934 2.08271 9.26614 1.5 10.733 1.5H14.6015C15.3902 1.49994 16.1699 1.66858 16.8881 1.99462M16.8881 1.99462C17.4922 2.26927 18.0435 2.65039 18.5126 3.11975L27.9435 12.5538C28.4176 13.0279 28.7968 13.5747 29.067 14.1736M16.8881 1.99462L16.8897 11.0131C16.8897 11.8513 17.2226 12.6552 17.8153 13.2479C18.408 13.8406 19.2119 14.1736 20.0501 14.1736H29.067M20.1481 30.7346H24.0324C25.4992 30.7346 26.906 30.1519 27.9433 29.1146C28.9805 28.0774 29.5632 26.6706 29.5632 25.2037V16.4649C29.5632 15.6669 29.391 14.8863 29.067 14.1736" stroke="black" stroke-width="3" stroke-linecap="round" stroke-linejoin="round"/>
</svg>
