<svg width="38" height="32" viewBox="0 0 38 32" fill="none" xmlns="http://www.w3.org/2000/svg">
<path d="M21.4681 16.4141C22.4818 15.5447 23.2948 14.4694 23.8521 13.2612C24.4094 12.053 24.6978 10.7402 24.6978 9.41177C24.6978 6.91561 23.697 4.52169 21.9155 2.75664C20.1341 0.991594 17.718 0 15.1986 0C12.6793 0 10.2632 0.991594 8.48172 2.75664C6.70029 4.52169 5.69949 6.91561 5.69949 9.41177C5.69947 10.7402 5.98788 12.053 6.54515 13.2612C7.10241 14.4694 7.91549 15.5447 8.9292 16.4141C6.2697 17.6073 4.01332 19.5342 2.42984 21.9643C0.846364 24.3945 0.00279627 27.2251 0 30.1176C0 30.6169 0.20016 31.0957 0.556447 31.4487C0.912734 31.8017 1.39596 32 1.89983 32C2.40369 32 2.88692 31.8017 3.24321 31.4487C3.5995 31.0957 3.79966 30.6169 3.79966 30.1176C3.79966 27.1223 5.00062 24.2496 7.13834 22.1315C9.27606 20.0134 12.1754 18.8235 15.1986 18.8235C18.2218 18.8235 21.1212 20.0134 23.2589 22.1315C25.3966 24.2496 26.5976 27.1223 26.5976 30.1176C26.5976 30.6169 26.7978 31.0957 27.154 31.4487C27.5103 31.8017 27.9936 32 28.4974 32C29.0013 32 29.4845 31.8017 29.8408 31.4487C30.1971 31.0957 30.3973 30.6169 30.3973 30.1176C30.3945 27.2251 29.5509 24.3945 27.9674 21.9643C26.3839 19.5342 24.1276 17.6073 21.4681 16.4141ZM15.1986 15.0588C14.0714 15.0588 12.9694 14.7276 12.0322 14.1071C11.0949 13.4866 10.3644 12.6047 9.93299 11.5728C9.50161 10.5409 9.38874 9.4055 9.60866 8.31008C9.82858 7.21466 10.3714 6.20845 11.1685 5.41869C11.9656 4.62894 12.9811 4.09111 14.0867 3.87321C15.1923 3.65532 16.3383 3.76715 17.3797 4.19456C18.4212 4.62198 19.3113 5.34577 19.9376 6.27443C20.5638 7.20308 20.8981 8.29488 20.8981 9.41177C20.8981 10.9095 20.2976 12.3458 19.2288 13.4048C18.1599 14.4639 16.7102 15.0588 15.1986 15.0588ZM37.4456 10.5976C37.269 10.4212 37.0589 10.2812 36.8274 10.1856C36.5959 10.0901 36.3475 10.0409 36.0967 10.0409C35.8459 10.0409 35.5976 10.0901 35.3661 10.1856C35.1346 10.2812 34.9245 10.4212 34.7479 10.5976L30.9482 14.3624L29.7703 13.1765C29.5937 13 29.3836 12.86 29.1521 12.7644C28.9206 12.6689 28.6722 12.6197 28.4214 12.6197C28.1706 12.6197 27.9223 12.6689 27.6908 12.7644C27.4593 12.86 27.2492 13 27.0726 13.1765C26.7187 13.5292 26.5201 14.0062 26.5201 14.5035C26.5201 15.0008 26.7187 15.4779 27.0726 15.8306L29.6183 18.3529C29.9743 18.7035 30.4558 18.9003 30.9577 18.9003C31.4596 18.9003 31.9411 18.7035 32.2971 18.3529L37.3696 13.3271C37.5614 13.1564 37.7162 12.9488 37.8244 12.717C37.9327 12.4851 37.9922 12.2339 37.9993 11.9785C38.0064 11.7232 37.961 11.4691 37.8658 11.2317C37.7706 10.9943 37.6276 10.7786 37.4456 10.5976Z" fill="black"/>
</svg>
